<?xml version="1.0" encoding="UTF-8" standalone="no"?>
<!-- Created with Inkscape (http://www.inkscape.org/) -->

<svg
   xmlns:dc="http://purl.org/dc/elements/1.1/"
   xmlns:cc="http://creativecommons.org/ns#"
   xmlns:rdf="http://www.w3.org/1999/02/22-rdf-syntax-ns#"
   xmlns:svg="http://www.w3.org/2000/svg"
   xmlns="http://www.w3.org/2000/svg"
   xmlns:sodipodi="http://sodipodi.sourceforge.net/DTD/sodipodi-0.dtd"
   xmlns:inkscape="http://www.inkscape.org/namespaces/inkscape"
   version="1.1"
   id="svg901"
   xml:space="preserve"
   width="259.33334"
   height="150"
   viewBox="0 0 259.33334 150"
   sodipodi:docname="Ontario_Provincial_Logo__NEW_.svg"
   inkscape:version="0.92.3 (unknown)"><metadata
     id="metadata907"><rdf:RDF><cc:Work
         rdf:about=""><dc:format>image/svg+xml</dc:format><dc:type
           rdf:resource="http://purl.org/dc/dcmitype/StillImage" /><dc:title></dc:title></cc:Work></rdf:RDF></metadata><defs
     id="defs905" /><sodipodi:namedview
     pagecolor="#ffffff"
     bordercolor="#666666"
     borderopacity="1"
     objecttolerance="10"
     gridtolerance="10"
     guidetolerance="10"
     inkscape:pageopacity="0"
     inkscape:pageshadow="2"
     inkscape:window-width="1920"
     inkscape:window-height="1135"
     id="namedview903"
     showgrid="false"
     inkscape:zoom="2.8953114"
     inkscape:cx="129.66667"
     inkscape:cy="120.36702"
     inkscape:window-x="0"
     inkscape:window-y="0"
     inkscape:window-maximized="1"
     inkscape:current-layer="g909" /><g
     id="g909"
     inkscape:groupmode="layer"
     inkscape:label="ink_ext_XXXXXX"
     transform="matrix(1.3333333,0,0,-1.3333333,0,149.99999)"><g
       id="g1035"
       transform="translate(8.390209e-8,29.27146)"><path
         d="m 17.0879,30.593 c 0.0684,0.1101 0.1113,0.2129 0.1269,0.3058 0.0247,0.1742 -0.0546,0.3844 -0.2207,0.5891 -0.4089,0.5109 -1.2382,0.8902 -1.8144,0.8351 -0.916,-0.0878 -1.7656,-0.873 -1.9063,-1.7628 -0.1386,-0.8903 0.4911,-1.5633 1.4129,-1.4891 0.7602,0.0578 1.9985,0.8777 2.4016,1.5219"
         style="fill:#000000;fill-opacity:1;fill-rule:nonzero;stroke:none;stroke-width:0.1"
         id="path915"
         inkscape:connector-curvature="0" /><path
         d="m 26.2363,31.8211 c 0.0664,0.5277 -0.5437,1.0051 -1.8925,1.4898 -4.054,1.4571 -6.4434,5.086 -7.2364,10.6129 0,0 -0.0027,0.0274 -0.0058,0.0532 -0.0176,0.016 -0.0332,0.03 -0.0332,0.03 -0.1895,0.175 -0.4356,0.35 -0.6817,0.1391 -0.5312,-0.4473 -0.1894,-2.3723 1.0821,-7.7731 0,0 0.496,-2.1281 0.496,-2.13 0.2735,-1.211 0.334,-2.1739 0.1993,-3.1231 C 18.0273,30.166 17.6797,29.15 17.0352,27.825 l -1.1747,-2.3859 c -3.1371,-6.3403 -4.1808,-8.6832 -3.7511,-9.1141 0.2031,-0.202 0.539,0.0559 0.8066,0.3031 0,0 0.0254,0.0219 0.0488,0.043 0.0137,0.0301 0.0247,0.0609 0.0247,0.0609 0.8433,2.052 1.7722,3.8821 2.7859,5.4969 2.2441,3.5723 4.9512,6.152 8.1457,7.7199 1.1922,0.5864 1.9059,1.0832 2.1852,1.525 0.0746,0.1203 0.1183,0.2321 0.13,0.3473"
         style="fill:#000000;fill-opacity:1;fill-rule:nonzero;stroke:none;stroke-width:0.1"
         id="path917"
         inkscape:connector-curvature="0" /><path
         d="m 54.1777,42.8391 c 0,0 0.0391,-0.0051 0.0743,-0.0071 0.0351,0.0168 0.0722,0.0309 0.0722,0.0309 0.3125,0.1371 0.6602,0.3109 0.8047,0.541 0.0488,0.0813 0.0781,0.166 0.0703,0.2602 -0.0586,0.7769 -2.8996,0.8699 -10.4512,0.7441 0,0 -2.7082,-0.0371 -2.7128,-0.0383 -1.4668,-0.009 -2.4922,0.1492 -3.3289,0.511 -0.8247,0.3621 -1.5364,0.95 -2.3098,1.907 0,0 -1.3496,1.693 -1.3496,1.6941 -3.3758,4.2821 -4.6309,5.6602 -5.2625,5.2719 C 29.707,53.7078 29.6543,53.65 29.6121,53.5828 29.491,53.3891 29.491,53.1262 29.509,52.9012 c 0,0 0.0027,-0.0301 0.0047,-0.0563 0.0156,-0.0179 0.0332,-0.0347 0.0332,-0.0347 3.7051,-3.7582 5.0722,-8.3582 3.8379,-13.55 -0.3985,-1.6883 -0.3875,-2.5793 0.039,-2.7973 0.427,-0.2207 1.291,0.234 2.7285,1.4351 4.5528,3.8122 10.4942,5.509 18.0254,4.9411"
         style="fill:#000000;fill-opacity:1;fill-rule:nonzero;stroke:none;stroke-width:0.1"
         id="path919"
         inkscape:connector-curvature="0" /><path
         d="m 42.0039,50.3828 c -0.8098,0.3121 -1.9863,-0.2726 -2.6355,-1.3066 -0.6204,-0.9864 -0.7121,-2.8832 -0.1457,-3.1231 0.5703,-0.2461 2.4433,0.936 3.0742,1.943 0.6633,1.0527 0.5261,2.1699 -0.293,2.4867"
         style="fill:#000000;fill-opacity:1;fill-rule:nonzero;stroke:none;stroke-width:0.1"
         id="path921"
         inkscape:connector-curvature="0" /><path
         d="m 31.6016,14.6898 c 0,0 1.8847,2.3364 1.8867,2.3364 1.0566,1.2968 1.9609,2.1347 2.9355,2.7207 0.9805,0.584 2.1223,0.964 3.7149,1.2363 l 2.9265,0.4816 c 8.1172,1.3032 11.1672,1.9473 11.2922,2.8383 0.0586,0.4117 -0.4265,0.6071 -0.8562,0.7321 0,0 -0.0383,0.0089 -0.0754,0.0187 -0.041,-0.007 -0.0801,-0.0168 -0.0801,-0.0168 -8.0879,-2.0652 -14.1769,-1.2711 -18.2812,2.0859 -1.2579,1.0301 -2.0672,1.3551 -2.5606,1.0461 -0.1016,-0.0679 -0.1914,-0.1601 -0.2695,-0.2839 -0.2918,-0.4653 -0.409,-1.3571 -0.3645,-2.7582 0.1203,-3.8821 -1.0691,-7.868 -3.5508,-11.8188 -1.1179,-1.7863 -2.4949,-3.54531 -4.114,-5.27226 0,0 -0.0254,-0.03008 -0.0469,-0.05508 C 24.1453,7.94805 24.1355,7.91211 24.1355,7.91211 24.0156,7.50391 23.918,7.01094 24.207,6.83398 c 0.625,-0.38203 2.47,1.71211 7.3946,7.85582"
         style="fill:#000000;fill-opacity:1;fill-rule:nonzero;stroke:none;stroke-width:0.1"
         id="path923"
         inkscape:connector-curvature="0" /><path
         d="m 36.6113,15.002 c 0.2774,-0.611 0.7657,-1.0641 1.345,-1.2379 0.4648,-0.1403 0.9519,-0.0879 1.3699,0.1519 0.4179,0.241 0.7402,0.6512 0.9074,1.1602 0.2105,0.6316 0.1641,1.3488 -0.1289,1.959 -0.5207,1.0886 -2.3625,2.123 -3.0363,1.7226 -0.0899,-0.0547 -0.1797,-0.1496 -0.2618,-0.2808 -0.0781,-0.127 -0.1496,-0.2809 -0.2128,-0.468 -0.3125,-0.9199 -0.3086,-2.2969 0.0175,-3.007"
         style="fill:#000000;fill-opacity:1;fill-rule:nonzero;stroke:none;stroke-width:0.1"
         id="path925"
         inkscape:connector-curvature="0" /><path
         d="m 71.5945,35.3441 c 0.0703,0.0571 0.1086,0.1321 0.1106,0.209 -0.002,0.077 -0.043,0.1469 -0.1172,0.1899 -0.541,0.3332 -12.3945,7.5308 -22.3731,4.9359 -0.082,-0.0219 -0.1523,-0.073 -0.1933,-0.1391 -0.0195,-0.0339 -0.0352,-0.0699 -0.0379,-0.1117 -0.0102,-0.1101 0.0711,-0.1972 0.1922,-0.2051 6.5976,-0.4679 13.0285,-4.007 14.9289,-5.1359 L 64.4219,34.9 64.1016,34.6582 c -1.9258,-1.4531 -8.6192,-6.2293 -15.5098,-7.9691 -0.1289,-0.034 -0.2246,-0.1442 -0.2246,-0.2641 -0.0039,-0.1219 0.0879,-0.218 0.2168,-0.2262 10.2578,-0.9078 22.4785,8.7231 23.0105,9.1453"
         style="fill:#000000;fill-opacity:1;fill-rule:nonzero;stroke:none;stroke-width:0.1"
         id="path927"
         inkscape:connector-curvature="0" /><path
         d="m 29.8457,49.1301 c 0.084,0.0629 0.1289,0.1711 0.0996,0.2578 -1.9453,6.293 -10.2637,7.7293 -10.5957,7.782 -0.0422,0.0102 -0.093,-0.007 -0.1394,-0.0418 -0.0481,-0.034 -0.0832,-0.0851 -0.0989,-0.1371 -0.1242,-0.4051 -3.0195,-10.1172 0.3496,-15.1601 0.0457,-0.0668 0.1407,-0.0778 0.2207,-0.02 0.084,0.0551 0.1309,0.1621 0.1153,0.2493 -0.8098,4.5546 0.4746,10.0257 0.8808,11.5718 l 0.0664,0.2532 0.2071,-0.05 c 1.2605,-0.3012 5.7558,-1.5563 8.6465,-4.7102 0.0578,-0.0621 0.1601,-0.0602 0.248,0.0051"
         style="fill:#000000;fill-opacity:1;fill-rule:nonzero;stroke:none;stroke-width:0.1"
         id="path929"
         inkscape:connector-curvature="0" /><path
         d="M 25.5938,12.8582 C 25.6465,12.977 25.623,13.1 25.543,13.1641 v 0 c -0.0801,0.0609 -0.1961,0.039 -0.2793,-0.05 C 21.0313,8.40195 15.2949,5.73711 13.6848,5.04609 l -0.261,-0.1082 0.0137,0.32422 c 0.0801,1.95273 0.5273,8.58989 2.8777,14.16989 0.0434,0.1071 0.0227,0.2219 -0.0496,0.2668 -0.0715,0.0481 -0.175,0.0153 -0.2468,-0.0687 C 10.6711,12.9199 10.3445,0.785938 10.3328,0.248047 10.3313,0.178125 10.3535,0.116016 10.3953,0.075 10.4363,0.0359375 10.4961,0.0261719 10.5488,0.0449219 10.9797,0.201953 21.5645,4.11094 25.5938,12.8582"
         style="fill:#000000;fill-opacity:1;fill-rule:nonzero;stroke:none;stroke-width:0.1"
         id="path931"
         inkscape:connector-curvature="0" /><path
         d="m 96.9219,20.0262 h 3.3121 v -3.1051 h 0.075 c 1.026,2.2148 3.508,3.557 6.096,3.557 4.811,0 6.96,-3.1453 6.96,-8.398 V 0.455078 H 109.93 V 10.5922 c 0,4.5598 -0.946,6.775 -3.932,6.9687 -3.9,0 -5.646,-3.2968 -5.646,-8.04879 V 0.455078 H 96.9219 V 20.0262"
         style="fill:#000000;fill-opacity:1;fill-rule:nonzero;stroke:none;stroke-width:0.1"
         id="path933"
         inkscape:connector-curvature="0" /><path
         d="m 139.392,9.78086 c -0.733,0 -1.451,0.07734 -2.189,0.07734 -1.849,0 -6.45,-0.30703 -6.45,-3.76015 0,-2.075 1.897,-3.19219 3.466,-3.19219 3.388,0 5.173,2.2293 5.173,5.14805 z m -10.161,8.85624 c 1.705,1.0848 3.753,1.841 6.123,1.841 5.316,0 7.459,-2.7621 7.459,-8.0832 V 4.29297 c 0,-2.23008 0.083,-3.26094 0.157,-3.837892 h -3.213 V 2.99102 h -0.063 C 138.88,1.79805 137.065,0 133.925,0 c -4.006,0 -6.812,1.83984 -6.812,6.09805 0,4.91485 5.099,6.44685 8.641,6.44685 1.349,0 2.285,0 3.638,-0.0879 0,3.3809 -1.162,5.1039 -4.584,5.1039 -1.943,0 -4.016,-0.7597 -5.396,-1.9918 l -0.181,3.068"
         style="fill:#000000;fill-opacity:1;fill-rule:nonzero;stroke:none;stroke-width:0.1"
         id="path935"
         inkscape:connector-curvature="0" /><path
         d="m 156.301,16.8711 c -0.488,0.1168 -0.983,0.15 -1.415,0.15 -3.228,0 -5.338,-3.0691 -5.338,-7.98516 V 0.455078 h -3.612 V 19.868 h 3.385 v -3.1942 h 0.07 c 0.963,2.0371 3.037,3.4942 5.105,3.4942 0.789,0 1.293,-0.0578 1.805,-0.152 v -3.1449"
         style="fill:#000000;fill-opacity:1;fill-rule:nonzero;stroke:none;stroke-width:0.1"
         id="path937"
         inkscape:connector-curvature="0" /><path
         d="m 174.327,2.90586 c 4.003,0 5.797,3.8332 5.797,7.32814 0,3.723 -2.154,7.3269 -5.797,7.3269 -3.685,0 -5.831,-3.6039 -5.831,-7.3269 0,-3.49494 1.778,-7.32814 5.831,-7.32814 z m 0,17.57224 c 5.642,0 9.441,-4.2941 9.441,-10.2441 C 183.768,4.63711 179.906,0 174.327,0 c -5.623,0 -9.474,4.63711 -9.474,10.234 0,5.95 3.78,10.2441 9.474,10.2441"
         style="fill:#000000;fill-opacity:1;fill-rule:nonzero;stroke:none;stroke-width:0.1"
         id="path939"
         inkscape:connector-curvature="0" /><path
         d="m 125.733,20.0262 h -5.018 v 5.6769 l -3.592,-1.1511 v -4.5071 l -2.959,-2.9527 h 2.959 V 5.67383 C 117.123,1.76016 119.42,0 123.144,0 c 1.064,0 2.115,0.260156 2.909,0.485938 V 3.51602 c -0.536,-0.31993 -1.304,-0.61016 -2.292,-0.61016 -1.655,0 -3.046,1.23125 -3.046,3.49805 V 17.1082 h 5.018 v 2.918"
         style="fill:#000000;fill-opacity:1;fill-rule:nonzero;stroke:none;stroke-width:0.1"
         id="path941"
         inkscape:connector-curvature="0" /><path
         d="m 158.541,0.455078 h 3.60391 v 19.5711 H 158.541 Z"
         style="fill:#000000;fill-opacity:1;fill-rule:nonzero;stroke:none;stroke-width:0.1"
         id="path943"
         inkscape:connector-curvature="0" /><path
         d="m 160.337,22.6352 c 1.218,0 2.203,0.9828 2.203,2.2089 0,1.2231 -0.985,2.2059 -2.203,2.2059 -1.225,0 -2.214,-0.9828 -2.214,-2.2059 0,-1.2261 0.989,-2.2089 2.214,-2.2089"
         style="fill:#000000;fill-opacity:1;fill-rule:nonzero;stroke:none;stroke-width:0.1"
         id="path945"
         inkscape:connector-curvature="0" /><path
         d="m 81.9512,3.36992 c 5.873,0 8.3926,5.14414 8.3926,10.48008 0,5.4391 -2.7715,10.5031 -8.3926,10.468 -5.6016,0.0351 -8.3731,-5.0289 -8.3731,-10.468 0,-5.33594 2.5215,-10.48008 8.3731,-10.48008 z m 0,24.31598 c 7.7383,0 12.2617,-5.9007 12.2617,-13.8359 C 94.2129,5.71484 89.7227,0 81.9512,0 74.1914,0 69.7109,5.71484 69.7109,13.85 c 0,7.9352 4.5227,13.8359 12.2403,13.8359"
         style="fill:#000000;fill-opacity:1;fill-rule:nonzero;stroke:none;stroke-width:0.1"
         id="path947"
         inkscape:connector-curvature="0" /></g></g></svg>